<?xml version="1.0" encoding="utf-8"?>
<!-- Generator: Adobe Illustrator 16.0.0, SVG Export Plug-In . SVG Version: 6.00 Build 0)  -->
<!DOCTYPE svg PUBLIC "-//W3C//DTD SVG 1.1//EN" "http://www.w3.org/Graphics/SVG/1.1/DTD/svg11.dtd">
<svg version="1.1" id="Calque_1" xmlns="http://www.w3.org/2000/svg" xmlns:xlink="http://www.w3.org/1999/xlink" x="0px" y="0px"
	 width="50px" height="50px" viewBox="0 0 50 50" enable-background="new 0 0 50 50" xml:space="preserve">
<g>
	<path opacity="0.1" fill="#FFFFFF" d="M35.962,42.408c-0.675,0-1.244-0.504-1.846-1.038c-1.604-1.6-2.883-2.943-4.931-5.817
		c-2.012-2.821-3.708-6.734-3.726-6.773l-0.13-0.302h-0.658l-0.133,0.302c-0.017,0.039-1.714,3.952-3.726,6.773
		c-2.047,2.874-3.327,4.218-4.91,5.802c-0.624,0.551-1.192,1.054-1.866,1.054c-0.331,0-0.679-0.117-1.064-0.358
		c-1.744-1.091-6.663-5.498-6.405-11.25c0.126-1.111,0.366-3.241,4.866-5.369l-0.249-0.951c-0.292,0.021-0.597,0.058-0.912,0.097
		c-0.485,0.06-0.987,0.122-1.487,0.122c-0.972,0-1.741-0.248-2.421-0.779c-1.563-1.224-3.919-5.74-4.278-8.861
		c-0.463-3.442-0.136-5.841,0.92-6.764c0.484-0.48,1.137-0.703,2.019-0.703c0.671,0,1.346,0.129,1.859,0.241
		c1.164,0.256,10.521,4.452,17.695,15.356l0.148,0.225h0.539l0.151-0.225c7.175-10.904,16.531-15.1,17.695-15.356
		c0.513-0.112,1.188-0.241,1.858-0.241c0.883,0,1.536,0.223,1.996,0.681c1.081,0.946,1.408,3.344,0.945,6.776
		c-0.359,3.129-2.715,7.646-4.279,8.871c-0.68,0.532-1.449,0.779-2.421,0.779l0,0c-0.501,0-1.003-0.062-1.487-0.122
		c-0.314-0.039-0.619-0.076-0.911-0.097l-0.249,0.951c4.499,2.126,4.74,4.258,4.869,5.403c0.254,5.718-4.665,10.125-6.409,11.216
		C36.641,42.291,36.292,42.408,35.962,42.408z"/>
	<path fill="#FFFFFF" d="M44.972,8.091c0.744,0,1.281,0.175,1.644,0.535l0.022,0.023l0.024,0.021
		c0.913,0.798,1.188,3.098,0.753,6.331c-0.34,2.957-2.628,7.38-4.089,8.524c-0.596,0.466-1.247,0.673-2.113,0.673
		c-0.47,0-0.956-0.06-1.427-0.118c-0.323-0.04-0.637-0.078-0.938-0.099l-0.497,1.902c4.2,1.985,4.463,3.916,4.582,4.973
		c0.226,5.498-4.497,9.722-6.173,10.771c-0.3,0.188-0.568,0.282-0.799,0.282c-0.485,0-0.985-0.443-1.514-0.912l-0.02-0.017
		c-1.557-1.558-2.82-2.887-4.836-5.717c-1.883-2.641-3.493-6.269-3.671-6.673l-0.27-0.612h-0.654H24.34l-0.26,0.604
		c-0.017,0.039-1.695,3.905-3.674,6.682c-2.016,2.829-3.279,4.159-4.835,5.717l-0.022,0.02c-0.528,0.468-1.027,0.909-1.512,0.909
		c-0.23,0-0.5-0.095-0.799-0.282c-1.676-1.049-6.398-5.273-6.172-10.771c0.119-1.055,0.379-2.985,4.582-4.972l-0.497-1.901
		c-0.301,0.021-0.614,0.059-0.938,0.099c-0.47,0.058-0.957,0.118-1.426,0.118c-0.866,0-1.518-0.208-2.113-0.673
		c-1.46-1.143-3.749-5.566-4.092-8.543C2.149,11.768,2.424,9.467,3.337,8.67l0.024-0.021l0.023-0.023
		c0.361-0.36,0.899-0.535,1.642-0.535c0.623,0,1.263,0.123,1.751,0.229c1.138,0.25,10.302,4.376,17.385,15.143l0.299,0.45h0.539
		h0.539l0.296-0.45C32.92,12.696,42.083,8.571,43.22,8.321C43.708,8.213,44.35,8.091,44.972,8.091 M44.972,7.091
		c-0.681,0-1.37,0.123-1.966,0.253c-1.442,0.317-10.846,4.688-18.005,15.569H25h-0.002C17.84,12.032,8.435,7.661,6.993,7.344
		c-0.596-0.13-1.285-0.253-1.966-0.253c-0.864,0-1.716,0.197-2.348,0.826c-1.288,1.125-1.543,3.824-1.088,7.198
		c0.358,3.115,2.721,7.832,4.467,9.198c0.895,0.7,1.827,0.886,2.729,0.886c0.857,0,1.688-0.167,2.434-0.22
		c-4.511,2.133-4.987,4.332-5.152,5.799c-0.276,6.165,5.041,10.696,6.64,11.696c0.495,0.31,0.933,0.435,1.33,0.435
		c0.883,0,1.562-0.619,2.219-1.2c1.591-1.592,2.898-2.966,4.964-5.865c2.067-2.899,3.777-6.865,3.777-6.865H25h0.001
		c0,0,1.71,3.966,3.777,6.865c2.065,2.899,3.373,4.273,4.965,5.865c0.655,0.581,1.336,1.2,2.219,1.2
		c0.396,0,0.834-0.125,1.329-0.435c1.599-1,6.915-5.531,6.641-11.696c-0.166-1.467-0.641-3.666-5.152-5.799
		c0.745,0.052,1.575,0.22,2.434,0.22c0.901,0,1.834-0.186,2.729-0.886c1.745-1.366,4.108-6.083,4.466-9.198
		c0.455-3.374,0.199-6.073-1.088-7.198C46.688,7.288,45.837,7.091,44.972,7.091L44.972,7.091z"/>
</g>
</svg>
